<svg version="1.1" xmlns="http://www.w3.org/2000/svg" xmlns:xlink="http://www.w3.org/1999/xlink" width="130.375" height="102.375" viewBox="0,0,130.375,102.375"><g transform="translate(-232.625,-172.625)"><g data-paper-data="{&quot;isPaintingLayer&quot;:true}" fill-rule="nonzero" stroke-linecap="butt" stroke-linejoin="miter" stroke-miterlimit="10" stroke-dasharray="" stroke-dashoffset="0" style="mix-blend-mode: normal"><path d="M363,275z" fill="#ff005b" stroke="none" stroke-width="0"/><path d="M232.625,180c0,-4.07309 3.30191,-7.375 7.375,-7.375c4.07309,0 7.375,3.30191 7.375,7.375c0,4.07309 -3.30191,7.375 -7.375,7.375c-4.07309,0 -7.375,-3.30191 -7.375,-7.375z" fill="#ffeda2" stroke="none" stroke-width="0"/><path d="M234.44527,180c0,-3.06779 2.48694,-5.55473 5.55473,-5.55473c3.06779,0 5.55473,2.48694 5.55473,5.55473c0,3.06779 -2.48694,5.55473 -5.55473,5.55473c-3.06779,0 -5.55473,-2.48694 -5.55473,-5.55473z" fill="#ffc600" stroke="#ffc600" stroke-width="2"/><path d="M235.43278,180c0,-2.52241 2.04482,-4.56722 4.56722,-4.56722c2.52241,0 4.56722,2.04482 4.56722,4.56722c0,2.52241 -2.04482,4.56722 -4.56722,4.56722c-2.52241,0 -4.56722,-2.04482 -4.56722,-4.56722z" fill="#ff8a00" stroke="#ff8a00" stroke-width="2"/><path d="M237.28436,180c0,-1.49981 1.21583,-2.71565 2.71565,-2.71565c1.49981,0 2.71565,1.21583 2.71565,2.71565c0,1.49981 -1.21583,2.71565 -2.71565,2.71565c-1.49981,0 -2.71565,-1.21583 -2.71565,-2.71565z" fill="#ff0000" stroke="#ff3500" stroke-width="2"/><path d="M239.07421,180c0,-0.5113 0.41449,-0.92579 0.92579,-0.92579c0.5113,0 0.92579,0.41449 0.92579,0.92579c0,0.5113 -0.41449,0.92579 -0.92579,0.92579c-0.5113,0 -0.92579,-0.41449 -0.92579,-0.92579z" fill="#ff0000" stroke="#a70061" stroke-width="2"/><path d="M238.85714,180c0,-0.63118 0.51167,-1.14286 1.14286,-1.14286c0.63118,0 1.14286,0.51167 1.14286,1.14286c0,0.63118 -0.51167,1.14286 -1.14286,1.14286c-0.63118,0 -1.14286,-0.51167 -1.14286,-1.14286z" fill="#7d002b" stroke="none" stroke-width="none"/></g></g></svg>