<svg version="1.1" xmlns="http://www.w3.org/2000/svg" xmlns:xlink="http://www.w3.org/1999/xlink" width="132.14128" height="104.14128" viewBox="0,0,132.14128,104.14128"><defs><radialGradient cx="240" cy="180" r="9.14128" gradientUnits="userSpaceOnUse" id="color-1"><stop offset="0" stop-color="#00ffdb"/><stop offset="1" stop-color="#00ffdb" stop-opacity="0"/></radialGradient></defs><g transform="translate(-230.85872,-170.85872)"><g data-paper-data="{&quot;isPaintingLayer&quot;:true}" fill-rule="nonzero" stroke-linecap="butt" stroke-linejoin="miter" stroke-miterlimit="10" stroke-dasharray="" stroke-dashoffset="0" style="mix-blend-mode: normal"><path d="M363,275z" fill="#ff005b" stroke="none" stroke-width="0"/><path d="M230.85872,180c0,-5.04859 4.09269,-9.14128 9.14128,-9.14128c5.04859,0 9.14128,4.09269 9.14128,9.14128c0,5.04859 -4.09269,9.14128 -9.14128,9.14128c-5.04859,0 -9.14128,-4.09269 -9.14128,-9.14128z" fill="url(#color-1)" stroke="none" stroke-width="0"/><path d="M234.19765,180c0,-3.20454 2.59781,-5.80235 5.80235,-5.80235c3.20454,0 5.80235,2.59781 5.80235,5.80235c0,3.20454 -2.59781,5.80235 -5.80235,5.80235c-3.20454,0 -5.80235,-2.59781 -5.80235,-5.80235z" fill="#97ffd3" stroke="none" stroke-width="0"/><path d="M235.62977,180c0,-2.41361 1.95662,-4.37023 4.37023,-4.37023c2.41361,0 4.37023,1.95662 4.37023,4.37023c0,2.41361 -1.95662,4.37023 -4.37023,4.37023c-2.41361,0 -4.37023,-1.95662 -4.37023,-4.37023z" fill="#ffc600" stroke="#4efff8" stroke-width="2"/><path d="M236.40669,180c0,-1.98453 1.60878,-3.59331 3.59331,-3.59331c1.98453,0 3.59331,1.60878 3.59331,3.59331c0,1.98453 -1.60878,3.59331 -3.59331,3.59331c-1.98453,0 -3.59331,-1.60878 -3.59331,-3.59331z" fill="#ff8a00" stroke="#5ecfff" stroke-width="2"/><path d="M237.86345,180c0,-1.17999 0.95657,-2.13656 2.13656,-2.13656c1.17999,0 2.13656,0.95657 2.13656,2.13656c0,1.17999 -0.95657,2.13656 -2.13656,2.13656c-1.17999,0 -2.13656,-0.95657 -2.13656,-2.13656z" fill="#ff0000" stroke="#5f89ff" stroke-width="2"/><path d="M239.27163,180c0,-0.40227 0.32611,-0.72837 0.72837,-0.72837c0.40227,0 0.72837,0.32611 0.72837,0.72837c0,0.40227 -0.32611,0.72837 -0.72837,0.72837c-0.40227,0 -0.72837,-0.32611 -0.72837,-0.72837z" fill="#ff0000" stroke="#0046ff" stroke-width="2"/></g></g></svg>